<?xml version="1.0" encoding="UTF-8" standalone="no"?>
<!-- Created with Inkscape (http://www.inkscape.org/) -->

<svg
   xmlns:dc="http://purl.org/dc/elements/1.1/"
   xmlns:cc="http://creativecommons.org/ns#"
   xmlns:rdf="http://www.w3.org/1999/02/22-rdf-syntax-ns#"
   xmlns:svg="http://www.w3.org/2000/svg"
   xmlns="http://www.w3.org/2000/svg"
   xmlns:sodipodi="http://sodipodi.sourceforge.net/DTD/sodipodi-0.dtd"
   xmlns:inkscape="http://www.inkscape.org/namespaces/inkscape"
   width="115.25011mm"
   height="135.46666mm"
   viewBox="0 0 115.25011 135.46666"
   version="1.1"
   id="svg8"
   inkscape:version="0.92.3 (2405546, 2018-03-11)"
   sodipodi:docname="gold.svg">
  <defs
     id="defs2" />
  <sodipodi:namedview
     id="base"
     pagecolor="#ffffff"
     bordercolor="#666666"
     borderopacity="1.0"
     inkscape:pageopacity="0.0"
     inkscape:pageshadow="2"
     inkscape:zoom="0.7"
     inkscape:cx="40.900865"
     inkscape:cy="227.04704"
     inkscape:document-units="mm"
     inkscape:current-layer="g835"
     showgrid="false"
     inkscape:window-width="2560"
     inkscape:window-height="1017"
     inkscape:window-x="-8"
     inkscape:window-y="-8"
     inkscape:window-maximized="1" />
  <metadata
     id="metadata5">
    <rdf:RDF>
      <cc:Work
         rdf:about="">
        <dc:format>image/svg+xml</dc:format>
        <dc:type
           rdf:resource="http://purl.org/dc/dcmitype/StillImage" />
        <dc:title></dc:title>
      </cc:Work>
    </rdf:RDF>
  </metadata>
  <g
     inkscape:label="Capa 1"
     inkscape:groupmode="layer"
     id="layer1"
     transform="translate(-120.7797,-50.861906)">
    <g
       id="g859"
       transform="matrix(0.26458333,0,0,0.26458333,110.67156,50.861906)">
      <g
         id="g851">
        <g
           id="g835">
          <g
             id="g819">
            <path
               id="path815"
               d="m 137.914,274.383 c -4.146,0 -8.354,-0.566 -12.534,-1.753 -7.968,-2.264 -12.589,-10.549 -10.322,-18.506 2.267,-7.957 10.569,-12.57 18.532,-10.308 8.415,2.39 17.2,-2.498 19.593,-10.896 2.393,-8.399 -2.502,-17.175 -10.912,-19.565 C 112.773,205.081 86.104,184.615 67.225,155.74 48.239,126.702 38.204,91.698 38.204,54.513 V 54.397 C 38.256,39.777 43.985,26.102 54.336,15.838 64.641,5.62 78.299,0 92.812,0 c 0.067,0 0.131,0.001 0.198,0.001 30.114,0.107 54.527,24.658 54.421,54.728 -0.029,8.254 -6.74,14.926 -14.999,14.926 -0.018,0 -0.036,0 -0.054,0 -8.284,-0.029 -14.977,-6.759 -14.947,-15.031 0.048,-13.553 -10.955,-24.618 -24.527,-24.666 -6.591,-0.044 -12.764,2.511 -17.429,7.137 -4.666,4.626 -7.248,10.789 -7.271,17.354 v 0.064 c 0,30.906 8.573,61.04 24.141,84.85 14.906,22.799 35.535,38.839 58.087,45.165 24.37,6.925 38.525,32.305 31.604,56.591 -5.729,20.112 -24.149,33.262 -44.122,33.264 z"
               inkscape:connector-curvature="0"
               style="fill:#ffe000;fill-opacity:1" />
            <path
               id="path817"
               d="m 374.086,274.383 c -19.977,0.002 -38.392,-13.15 -44.124,-33.265 -6.921,-24.285 7.235,-49.666 31.556,-56.577 22.601,-6.34 43.23,-22.379 58.136,-45.178 15.568,-23.811 24.141,-53.945 24.141,-84.85 v -0.116 c -0.023,-6.512 -2.605,-12.675 -7.271,-17.302 -4.644,-4.605 -10.799,-7.137 -17.34,-7.137 -0.03,0 -0.059,0 -0.089,0 -13.572,0.048 -24.574,11.113 -24.526,24.666 0.029,8.272 -6.663,15.002 -14.947,15.031 -0.018,0 -0.036,0 -0.054,0 -8.26,0 -14.97,-6.671 -14.999,-14.926 -0.106,-30.07 24.307,-54.621 54.42,-54.728 0.066,0 0.132,-0.001 0.198,-0.001 14.515,0 28.171,5.62 38.476,15.838 10.352,10.264 16.081,23.939 16.132,38.506 v 0.169 c 0,37.185 -10.035,72.189 -29.021,101.227 -18.878,28.875 -45.547,49.341 -75.095,57.629 -8.361,2.376 -13.256,11.153 -10.863,19.551 2.393,8.398 11.182,13.286 19.593,10.897 7.963,-2.264 16.265,2.35 18.532,10.308 2.267,7.957 -2.354,16.242 -10.322,18.506 -4.176,1.186 -8.39,1.752 -12.533,1.752 z"
               inkscape:connector-curvature="0"
               style="fill:#ffac00;fill-opacity:1" />
          </g>
          <g
             id="g833">
            <g
               id="g825">
              <path
                 id="path821"
                 d="M 331.754,422.663 H 180.246 c -8.284,0 -15,-6.706 -15,-14.979 0,-32.803 17.664,-62.704 45.754,-78.709 V 266.34 c -6.485,-2.755 -12.7,-6.1 -18.566,-9.995 C 160.353,235.042 141.2,199.356 141.2,160.885 V 14.979 C 141.2,6.707 147.916,0 156.2,0 h 199.602 c 8.284,0 15,6.706 15,14.979 v 145.906 c 0,38.472 -19.153,74.158 -51.234,95.46 -5.867,3.895 -12.082,7.24 -18.566,9.995 v 62.635 c 28.09,16.005 45.754,45.906 45.754,78.709 -0.002,8.273 -6.717,14.979 -15.002,14.979 z"
                 inkscape:connector-curvature="0"
                 style="fill:#ffff54;fill-opacity:1" />
              <path
                 id="path823"
                 d="M 319.566,256.345 C 351.647,235.043 370.8,199.357 370.8,160.885 V 14.979 C 370.8,6.707 364.084,0 355.8,0 H 256 v 422.662 h 75.754 c 8.284,0 15,-6.706 15,-14.979 0,-32.803 -17.664,-62.704 -45.754,-78.709 V 266.34 c 6.485,-2.755 12.7,-6.1 18.566,-9.995 z"
                 inkscape:connector-curvature="0"
                 style="fill:#eedd1b;fill-opacity:1" />
            </g>
            <g
               id="g831"
               style="fill:#c2c2c2;fill-opacity:1">
              <path
                 id="path827"
                 d="m 296,311.372 h -80 c -8.284,0 -15,-6.706 -15,-14.979 0,-8.273 6.716,-14.979 15,-14.979 h 80 c 8.284,0 15,6.706 15,14.979 0,8.273 -6.716,14.979 -15,14.979 z"
                 inkscape:connector-curvature="0"
                 style="fill:#eedd1b;fill-opacity:1" />
              <path
                 id="path829"
                 d="m 296,281.414 h -40 v 29.957 h 40 c 8.284,0 15,-6.706 15,-14.979 0,-8.273 -6.716,-14.978 -15,-14.978 z"
                 inkscape:connector-curvature="0"
                 style="fill:#ffb931;fill-opacity:1" />
            </g>
          </g>
        </g>
        <g
           id="g849">
          <g
             id="g841">
            <path
               id="path837"
               d="M 395.631,512 H 116.369 c -8.284,0 -15,-6.706 -15,-14.979 v -89.337 c 0,-8.272 6.716,-14.979 15,-14.979 h 279.263 c 8.284,0 15,6.706 15,14.979 v 89.337 C 410.631,505.294 403.915,512 395.631,512 Z"
               inkscape:connector-curvature="0"
               style="fill:#ffff76;fill-opacity:1" />
            <path
               id="path839"
               d="M 395.631,392.706 H 256 V 512 h 139.631 c 8.284,0 15,-6.706 15,-14.979 v -89.337 c 0,-8.272 -6.716,-14.978 -15,-14.978 z"
               inkscape:connector-curvature="0"
               style="fill:#eedd57;fill-opacity:1" />
          </g>
          <g
             id="g847">
            <path
               id="path843"
               d="M 415.631,512 H 96.369 c -8.284,0 -15,-6.706 -15,-14.979 0,-8.273 6.716,-14.979 15,-14.979 h 319.263 c 8.284,0 15,6.706 15,14.979 0,8.273 -6.717,14.979 -15.001,14.979 z"
               inkscape:connector-curvature="0"
               style="fill:#ffb931;fill-opacity:1" />
            <path
               id="path845"
               d="M 415.631,482.043 H 256 V 512 h 159.631 c 8.284,0 15,-6.706 15,-14.979 0,-8.273 -6.716,-14.978 -15,-14.978 z"
               inkscape:connector-curvature="0"
               style="fill:#ff9e31;fill-opacity:1" />
          </g>
        </g>
      </g>
      <text
         xml:space="preserve"
         style="font-style:normal;font-variant:normal;font-weight:bold;font-stretch:normal;font-size:21.33333397px;line-height:1.25;font-family:sans-serif;-inkscape-font-specification:'sans-serif, Bold';font-variant-ligatures:normal;font-variant-caps:normal;font-variant-numeric:normal;font-feature-settings:normal;text-align:start;letter-spacing:0px;word-spacing:0px;writing-mode:lr-tb;text-anchor:start;fill:#000000;fill-opacity:1;stroke:none"
         x="205.88931"
         y="149.35521"
         id="text893"><tspan
           sodipodi:role="line"
           id="tspan891"
           x="205.88931"
           y="168.81825" /></text>
    </g>
  </g>
</svg>
